<svg width="42" height="42" viewBox="0 0 42 42" fill="none" xmlns="http://www.w3.org/2000/svg">
<path d="M5.25 30.1874V36.7499H11.8125L31.1675 17.3949L24.605 10.8324L5.25 30.1874ZM36.2425 12.3199C36.4047 12.158 36.5334 11.9657 36.6213 11.754C36.7091 11.5423 36.7543 11.3153 36.7543 11.0861C36.7543 10.8569 36.7091 10.63 36.6213 10.4183C36.5334 10.2066 36.4047 10.0143 36.2425 9.85238L32.1475 5.75738C31.9856 5.59515 31.7933 5.46644 31.5816 5.37863C31.3699 5.29081 31.1429 5.24561 30.9138 5.24561C30.6846 5.24561 30.4576 5.29081 30.2459 5.37863C30.0342 5.46644 29.8419 5.59515 29.68 5.75738L26.4775 8.95988L33.04 15.5224L36.2425 12.3199Z" fill="#3B82F6"/>
</svg>
<path d="M5.25 30.1874V36.7499H11.8125L31.1675 17.3949L24.605 10.8324L5.25 30.1874ZM36.2425 12.3199C36.4047 12.158 36.5334 11.9657 36.6213 11.754C36.7091 11.5423 36.7543 11.3153 36.7543 11.0861C36.7543 10.8569 36.7091 10.63 36.6213 10.4183C36.5334 10.2066 36.4047 10.0143 36.2425 9.85238L32.1475 5.75738C31.9856 5.59515 31.7933 5.46644 31.5816 5.37863C31.3699 5.29081 31.1429 5.24561 30.9138 5.24561C30.6846 5.24561 30.4576 5.29081 30.2459 5.37863C30.0342 5.46644 29.8419 5.59515 29.68 5.75738L26.4775 8.95988L33.04 15.5224L36.2425 12.3199Z" stroke="#3B82F6"/>
</svg>  