<svg version="1.1" id="icons" xmlns="http://www.w3.org/2000/svg" x="0" y="0" viewBox="0 0 64 64" style="enable-background:new 0 0 64 64" xml:space="preserve"><style>.st0{display:none}.st1,.st2{display:inline}.st1{fill:none;stroke:#414042;stroke-miterlimit:10}.st2{fill:#a7a9ac}.st3{fill:#f5ab35}.st3,.st4{display:inline}.st5{fill:none;stroke:#414042;stroke-miterlimit:10}.st7,.st8,.st9{display:inline;fill:#414042}.st8,.st9{fill:#e6e7e8}.st9{fill:#36d7b7}.st10,.st12,.st14{display:inline;fill:#f1f2f2}.st12,.st14{fill:#5edfc5}.st14{fill:#d1d3d4}.st15,.st16,.st18{display:inline;fill:#f7bc5d}.st16,.st18{fill:#fff}.st18{fill:#f9cd86}.st19{fill:none;stroke:#414042;stroke-linecap:round;stroke-miterlimit:10}.st20{fill:#b88028}.st21{fill:#e6e7e8}.st22{fill:#414042}.st23{fill:#f5ab35}.st25{fill:#bcbec0}.st26{display:inline;fill:none;stroke:#414042;stroke-miterlimit:10;stroke-dasharray:2}.st27,.st28{display:inline;fill:#afefe2}.st28{fill:#bcbec0}</style><g id="XMLID_233_"><path id="XMLID_197_" class="st5" d="M45.7 33.8 32.1 18.5c-.2-.2-.5-.2-.7 0L17.9 33.8"/><path id="XMLID_195_" class="st21" d="M15.7 30.8h32.1v16.8H15.7z"/><g id="XMLID_199_"><path id="XMLID_200_" class="st22" d="M20 44.6v-5h.8v2.2h2.5v-2.2h.8v5h-.8v-2h-2.5v2H20z"/><path id="XMLID_202_" class="st22" d="M29.7 43.9c-.5.5-1.1.7-1.9.7-.7 0-1.4-.2-1.9-.7-.5-.5-.8-1.1-.8-1.8s.3-1.3.8-1.8 1.1-.7 1.9-.7c.7 0 1.4.2 1.9.7.5.5.8 1.1.8 1.8s-.3 1.3-.8 1.8zm-.6-3.1c-.3-.4-.8-.5-1.3-.5s-.9.2-1.3.5c-.3.4-.5.8-.5 1.3s.2.9.5 1.3.8.5 1.3.5.9-.2 1.3-.5c.3-.4.5-.8.5-1.3s-.1-1-.5-1.3z"/><path id="XMLID_205_" class="st22" d="M33.3 40.4v4.2h-.8v-4.2H31v-.8h3.9v.8h-1.6z"/><path id="XMLID_207_" class="st22" d="M39.2 39.6v.8h-2.7v1.3H39v.7h-2.4v1.3h2.7v.8h-3.6v-5h3.5z"/><path id="XMLID_209_" class="st22" d="M40.4 44.6v-5h.8v4.2h2.3v.8h-3.1z"/></g><path id="XMLID_198_" class="st23" d="m24.9 37.8-.9-.5h-.1l-.9.5c-.1 0-.1 0-.1-.1l.2-1v-.1l-.7-.6v-.1l1-.1h.1l.4-.9c0-.1.1-.1.1 0l.4.9h.1l1 .1c.1 0 .1.1 0 .1l-.7.7v.1l.2 1h-.1z"/><path id="XMLID_211_" class="st23" d="m28.8 37.8-.9-.5h-.1l-.8.5c-.1 0-.1 0-.1-.1l.2-1v-.1l-.8-.6v-.1l1-.1h.1l.4-.9c0-.1.1-.1.1 0l.4.9h.1l1 .1c.1 0 .1.1 0 .1l-.7.7v.1l.2 1h-.1z"/><path id="XMLID_212_" class="st23" d="m32.7 37.8-.9-.5h-.1l-.9.5c-.1 0-.1 0-.1-.1l.2-1v-.1l-.7-.6v-.1l1-.1h.1l.4-.9c0-.1.1-.1.1 0l.4.9h.1l1 .1c.1 0 .1.1 0 .1l-.7.7v.1l.2 1h-.1z"/><path id="XMLID_213_" class="st23" d="m36.6 37.8-.9-.5h-.1l-.9.5c-.1 0-.1 0-.1-.1l.2-1v-.1l-.7-.6v-.1l1-.1h.1l.4-.9c0-.1.1-.1.1 0l.4.9h.1l1 .1c.1 0 .1.1 0 .1l-.7.7v.1l.2 1h-.1z"/><path id="XMLID_214_" class="st23" d="m40.5 37.8-.9-.5h-.1l-.9.5c-.1 0-.1 0-.1-.1l.2-1v-.1l-.8-.6v-.1l1-.1h.1l.4-.9c0-.1.1-.1.1 0l.4.9h.1l1 .1c.1 0 .1.1 0 .1l-.7.7v.1l.2 1c.1 0 0 0 0 0z"/><path id="XMLID_216_" class="st5" d="M15.7 47.1h32.1"/><circle id="XMLID_215_" class="st5" cx="31.8" cy="20.2" r="1.1"/><g id="XMLID_613_"><path id="XMLID_615_" class="st5" d="M44.4 28.4H47"/><path id="XMLID_614_" class="st5" d="M45.7 29.7V27"/></g><g id="XMLID_223_"><path id="XMLID_225_" class="st5" d="M20.8 24.9h2.6"/><path id="XMLID_224_" class="st5" d="M22.1 26.2v-2.6"/></g><g id="XMLID_226_"><path id="XMLID_228_" class="st5" d="M21.5 17.7h2.7"/><path id="XMLID_227_" class="st5" d="M22.9 19.1v-2.7"/></g><g id="XMLID_229_"><path id="XMLID_231_" class="st5" d="M15.7 21.3H20"/><path id="XMLID_230_" class="st5" d="M17.9 23.5v-4.4"/></g><g id="XMLID_217_"><path id="XMLID_219_" class="st5" d="M38.8 23.3H42"/><path id="XMLID_218_" class="st5" d="M40.4 24.9v-3.2"/></g><g id="XMLID_220_"><path id="XMLID_222_" class="st5" d="M44 20.6h4.3"/><path id="XMLID_221_" class="st5" d="M46.1 22.7v-4.3"/></g></g></svg>